<svg xmlns="http://www.w3.org/2000/svg" version="1.1" xmlns:xlink="http://www.w3.org/1999/xlink" xmlns:svgjs="http://svgjs.dev/svgjs" width="1000" height="1000" viewBox="0 0 1000 1000"><g transform="matrix(1,0,0,1,-0.14221556886212738,-0.14221556886229791)"><svg viewBox="0 0 334 334" data-background-color="#ffffff" preserveAspectRatio="xMidYMid meet" height="1000" width="1000" xmlns="http://www.w3.org/2000/svg" xmlns:xlink="http://www.w3.org/1999/xlink"><g id="tight-bounds" transform="matrix(1,0,0,1,0.04749999999998522,0.04750000000001364)"><svg viewBox="0 0 333.90454557049503 333.90454557049503" height="333.90454557049503" width="333.90454557049503"><g><svg></svg></g><g><svg viewBox="0 0 333.90454557049503 333.90454557049503" height="333.90454557049503" width="333.90454557049503"><g><path d="M0 166.952c0-92.205 74.747-166.952 166.952-166.952 92.205 0 166.952 74.747 166.953 166.952 0 92.205-74.747 166.952-166.953 166.953-92.205 0-166.952-74.747-166.952-166.953zM166.952 316.63c82.665 0 149.677-67.013 149.678-149.678 0-82.665-67.013-149.677-149.678-149.677-82.665 0-149.677 67.013-149.677 149.677 0 82.665 67.013 149.677 149.677 149.678z" data-fill-palette-color="tertiary" fill="#ff5858" stroke="transparent"></path><ellipse rx="160.27418187383762" ry="160.27418187383762" cx="166.95227278524752" cy="166.95227278524752" fill="#ff5858" stroke="transparent" stroke-width="0" fill-opacity="1" data-fill-palette-color="tertiary"></ellipse></g><g transform="matrix(1,0,0,1,108.52694821096458,71.17305217166896)"><svg viewBox="0 0 116.85064914856586 191.55844122715712" height="191.55844122715712" width="116.85064914856586"><g><svg viewBox="0 0 116.85064914856586 191.55844122715712" height="191.55844122715712" width="116.85064914856586"><g><svg viewBox="0 0 116.85064914856586 191.55844122715712" height="191.55844122715712" width="116.85064914856586"><g><svg viewBox="0 0 116.85064914856586 191.55844122715712" height="191.55844122715712" width="116.85064914856586"><g id="textblocktransform"><svg viewBox="0 0 116.85064914856586 191.55844122715712" height="191.55844122715712" width="116.85064914856586" id="textblock"><g><svg viewBox="0 0 116.85064914856586 191.55844122715712" height="191.55844122715712" width="116.85064914856586"><g transform="matrix(1,0,0,1,0,0)"><svg width="116.85064914856586" viewBox="3.299999952316284 -35 21.350000381469727 35" height="191.55844122715712" data-palette-color="#ffffff"><path d="M19-18.85Q24.65-16.75 24.65-10L24.65-10Q24.65-5.4 21.98-2.7 19.3 0 14.6 0L14.6 0 3.3 0 3.3-35 12.4-35Q17.05-35 19.6-32.83 22.15-30.65 22.15-26.4L22.15-26.4Q22.15-23.9 21.35-21.93 20.55-19.95 19-18.85L19-18.85ZM7.85-30.85L7.85-20.4 11.85-20.4Q14.85-20.4 16.07-21.53 17.3-22.65 17.3-25.7L17.3-25.7Q17.3-28.65 16.07-29.75 14.85-30.85 11.85-30.85L11.85-30.85 7.85-30.85ZM14.2-4.15Q16.75-4.15 18.23-5.68 19.7-7.2 19.7-10.15L19.7-10.15Q19.7-13.35 18.28-14.78 16.85-16.2 14.2-16.2L14.2-16.2 7.85-16.2 7.85-4.15 14.2-4.15Z" opacity="1" transform="matrix(1,0,0,1,0,0)" fill="#ffffff" class="undefined-text-0" data-fill-palette-color="quaternary" id="text-0"></path></svg></g></svg></g></svg></g></svg></g><g></g></svg></g></svg></g></svg></g></svg></g><defs></defs></svg><rect width="333.90454557049503" height="333.90454557049503" fill="none" stroke="none" visibility="hidden"></rect></g></svg></g></svg>